<svg xmlns="http://www.w3.org/2000/svg" style="display: none;"><symbol id="facebook" viewBox="0 0 408.788 408.788"><title>facebook</title><path style="fill:#475993;" d="M353.701,0H55.087C24.665,0,0.002,24.662,0.002,55.085v298.616c0,30.423,24.662,55.085,55.085,55.085 h147.275l0.251-146.078h-37.951c-4.932,0-8.935-3.988-8.954-8.92l-0.182-47.087c-0.019-4.959,3.996-8.989,8.955-8.989h37.882 v-45.498c0-52.8,32.247-81.55,79.348-81.55h38.65c4.945,0,8.955,4.009,8.955,8.955v39.704c0,4.944-4.007,8.952-8.95,8.955 l-23.719,0.011c-25.615,0-30.575,12.172-30.575,30.035v39.389h56.285c5.363,0,9.524,4.683,8.892,10.009l-5.581,47.087 c-0.534,4.506-4.355,7.901-8.892,7.901h-50.453l-0.251,146.078h87.631c30.422,0,55.084-24.662,55.084-55.084V55.085 C408.786,24.662,384.124,0,353.701,0z"/></symbol><symbol id="pinterest" viewBox="0 0 455.731 455.731"><title>pinterest</title><rect x="0" y="0" style="fill:#C9353D;" width="455.731" height="455.731"/><path style="fill:#FFFFFF;" d="M160.601,382C86.223,350.919,37.807,262.343,68.598,172.382 C99.057,83.391,197.589,36.788,286.309,69.734c88.972,33.04,132.978,131.213,98.486,219.22 c-35.709,91.112-131.442,123.348-203.22,100.617c5.366-13.253,11.472-26.33,15.945-39.943c4.492-13.672,7.356-27.878,10.725-41.037 c2.9,2.44,5.814,5.027,8.866,7.439c15.861,12.535,33.805,13.752,52.605,9.232c19.977-4.803,35.764-16.13,47.455-32.78 c19.773-28.16,26.751-60.019,21.972-93.546c-4.942-34.668-25.469-59.756-57.65-72.389c-48.487-19.034-94.453-12.626-134.269,22.259 c-30.622,26.83-40.916,72.314-26.187,107.724c5.105,12.274,13.173,21.907,25.379,27.695c6.186,2.933,8.812,1.737,10.602-4.724 c0.133-0.481,0.295-0.955,0.471-1.422c3.428-9.04,2.628-16.472-3.473-25.199c-11.118-15.906-9.135-34.319-3.771-51.961 c10.172-33.455,40.062-55.777,75.116-56.101c9.39-0.087,19.056,0.718,28.15,2.937c27.049,6.599,44.514,27.518,46.264,55.253 c1.404,22.242-2.072,43.849-11.742,64.159c-4.788,10.055-11.107,18.996-20.512,25.325c-8.835,5.945-18.496,8.341-28.979,5.602 c-14.443-3.774-22.642-16.95-18.989-31.407c3.786-14.985,8.685-29.69,12.399-44.69c1.57-6.344,2.395-13.234,1.751-19.696 c-1.757-17.601-18.387-25.809-33.933-17.216c-10.889,6.019-16.132,16.079-18.564,27.719c-2.505,11.992-1.292,23.811,2.61,35.439 c0.784,2.337,0.9,5.224,0.347,7.634c-7.063,30.799-14.617,61.49-21.306,92.369c-1.952,9.011-1.59,18.527-2.239,27.815 C160.495,377.839,160.601,379.635,160.601,382z"/></symbol><symbol id="instagram" viewBox="0 0 24 24"><title>instagram</title><linearGradient id="SVGID_1_" gradientTransform="matrix(0 -1.982 -1.844 0 -132.522 -51.077)" gradientUnits="userSpaceOnUse" x1="-37.106" x2="-26.555" y1="-72.705" y2="-84.047"><stop offset="0" stop-color="#fd5"/><stop offset=".5" stop-color="#ff543e"/><stop offset="1" stop-color="#c837ab"/></linearGradient><path d="m1.5 1.633c-1.886 1.959-1.5 4.04-1.5 10.362 0 5.25-.916 10.513 3.878 11.752 1.497.385 14.761.385 16.256-.002 1.996-.515 3.62-2.134 3.842-4.957.031-.394.031-13.185-.001-13.587-.236-3.007-2.087-4.74-4.526-5.091-.559-.081-.671-.105-3.539-.11-10.173.005-12.403-.448-14.41 1.633z" fill="url(#SVGID_1_)"/><path d="m11.998 3.139c-3.631 0-7.079-.323-8.396 3.057-.544 1.396-.465 3.209-.465 5.805 0 2.278-.073 4.419.465 5.804 1.314 3.382 4.79 3.058 8.394 3.058 3.477 0 7.062.362 8.395-3.058.545-1.41.465-3.196.465-5.804 0-3.462.191-5.697-1.488-7.375-1.7-1.7-3.999-1.487-7.374-1.487zm-.794 1.597c7.574-.012 8.538-.854 8.006 10.843-.189 4.137-3.339 3.683-7.211 3.683-7.06 0-7.263-.202-7.263-7.265 0-7.145.56-7.257 6.468-7.263zm5.524 1.471c-.587 0-1.063.476-1.063 1.063s.476 1.063 1.063 1.063 1.063-.476 1.063-1.063-.476-1.063-1.063-1.063zm-4.73 1.243c-2.513 0-4.55 2.038-4.55 4.551s2.037 4.55 4.55 4.55 4.549-2.037 4.549-4.55-2.036-4.551-4.549-4.551zm0 1.597c3.905 0 3.91 5.908 0 5.908-3.904 0-3.91-5.908 0-5.908z" fill="#fff"/></symbol><symbol id="youtube" viewBox="0 0 455.731 455.731"><title>youtube</title><rect x="0" y="0" style="fill:#DC472E;" width="455.731" height="455.731"/><g> <path style="fill:#FFFFFF;" d="M263.259,291.734c-0.01-1.7-0.51-3.47-1.14-5.06c-0.84-2.09-2.64-3.13-4.9-3.35 c-2.65-0.26-4.77,0.81-6.69,2.51c-0.77,0.67-1.12,1.67-1.12,1.67l0.04,53.97v1.33c0,0,0.46,0.62,0.53,0.7 c1.56,1.69,3.38,3.03,5.71,3.51c3.84,0.79,6.55-0.81,7.3-4.37c0.19-0.89,0.3-1.81,0.3-2.72 C263.309,323.854,263.339,307.794,263.259,291.734z M263.259,291.734c-0.01-1.7-0.51-3.47-1.14-5.06 c-0.84-2.09-2.64-3.13-4.9-3.35c-2.65-0.26-4.77,0.81-6.69,2.51c-0.77,0.67-1.12,1.67-1.12,1.67l0.04,53.97v1.33 c0,0,0.46,0.62,0.53,0.7c1.56,1.69,3.38,3.03,5.71,3.51c3.84,0.79,6.55-0.81,7.3-4.37c0.19-0.89,0.3-1.81,0.3-2.72 C263.309,323.854,263.339,307.794,263.259,291.734z M323.689,210.344c-63.87-1.37-127.77-1.37-191.65,0 c-22.16,0.47-39.88,18.59-39.88,40.76v99.76c0,22.18,17.72,40.3,39.88,40.77c63.88,1.37,127.78,1.37,191.65,0 c22.17-0.47,39.89-18.59,39.89-40.77v-99.76C363.579,228.935,345.859,210.814,323.689,210.344z M150.799,359.955h-18.42v-104.13 h-19.07v-17.42h56.6v17.38h-19.11V359.955z M216.719,316.734v43.23h-16.31v-9.88c-0.59,0.63-0.92,0.97-1.23,1.32 c-3.51,3.96-7.49,7.26-12.57,9.01c-2.48,0.85-5.03,1.14-7.64,0.69c-3.56-0.59-5.95-2.64-7.39-5.88c-1.34-2.99-1.68-6.19-1.69-9.41 c-0.04-11.9-0.02-74.88-0.02-75.49h16.27c0.03,0.55,0.09,45.76,0.1,67.81c0,1.2,0.01,2.43,0.25,3.6c0.6,2.96,2.87,4.23,5.72,3.19 c3.28-1.2,5.78-3.46,7.88-6.17c0.31-0.39,0.31-1.09,0.31-1.65v-66.88l16.32-0.04C216.719,270.185,216.719,301.754,216.719,316.734 z M278.769,351.324c-2.18,6.56-6.98,9.9-13.88,9.83c-5.61-0.05-10.16-2.28-13.91-6.35c-0.42-0.45-1.58-1.68-1.58-1.68v6.82h-16.34 v-121.55h16.34c0,12.94,0,40.01,0,40.01s0.92-1.84,1.76-2.79c2.53-2.83,5.61-5.02,9.41-5.98c6.27-1.57,13.5,0.37,16.94,7.7 c2.03,4.33,2.6,8.95,2.6,13.65c0.03,16.99,0.03,33.98,0.01,50.97C280.109,345.134,279.779,348.275,278.769,351.324z M339.119,347.905c-2.83,8.29-8.68,12.89-17.26,14.15c-5.32,0.78-10.59,0.67-15.58-1.59c-6.83-3.08-10.7-8.65-12.36-15.74 c-0.77-3.3-1.15-6.76-1.19-10.15c-0.13-13.31-0.07-26.63-0.04-39.94c0.01-6.96,1.67-13.38,6.44-18.71 c5.44-6.09,12.4-8.36,20.35-7.85c2.39,0.15,4.83,0.54,7.1,1.29c7.73,2.54,11.86,8.33,13.48,16.01c0.62,2.96,0.85,6.03,0.9,9.06 c0.13,7.1-0.05,22.75-0.05,22.75h-31.29v22.43c0,4.03,3.26,7.29,7.29,7.29c4.02,0,7.28-3.26,7.28-7.29v-11.53h16.81 C340.999,328.084,341.249,341.695,339.119,347.905z M324.189,290.685c0-4.02-3.26-7.29-7.28-7.29c-4.03,0-7.29,3.27-7.29,7.29 v12.59h14.57V290.685z M262.119,286.675c-0.84-2.09-2.64-3.13-4.9-3.35c-2.65-0.26-4.77,0.81-6.69,2.51 c-0.77,0.67-1.12,1.67-1.12,1.67l0.04,53.97v1.33c0,0,0.46,0.62,0.53,0.7c1.56,1.69,3.38,3.03,5.71,3.51 c3.84,0.79,6.55-0.81,7.3-4.37c0.19-0.89,0.3-1.81,0.3-2.72c0.02-16.07,0.05-32.13-0.03-48.19 C263.249,290.034,262.749,288.264,262.119,286.675z"/> <path style="fill:#FFFFFF;" d="M303.887,94.99l-0.005,90.244H287.16l0.02-9.695c-1.849,1.821-3.427,3.522-5.161,5.05 c-3.074,2.708-6.556,4.727-10.629,5.524c-6.253,1.223-11.579-0.754-13.573-7.23c-0.664-2.157-1.065-4.482-1.082-6.734V94.99 h16.596v68.821c0,0.912,0.073,1.834,0.233,2.728c0.504,2.836,2.6,4.171,5.331,3.224c3.329-1.152,5.869-3.457,8.024-6.173 c0.306-0.388,0.251-1.112,0.251-1.681V94.99H303.887z"/> <path style="fill:#FFFFFF;" d="M165.578,110.672c-3.63-15.301-11.235-47.602-11.235-47.602h-19.029 c0,0,14.62,48.487,21.158,70.111c0.235,0.782,0.343,1.631,0.343,2.45l-0.007,49.584h17.547l-0.007-49.584 c0-0.819,0.108-1.668,0.343-2.45c6.538-21.624,21.158-70.111,21.158-70.111H176.82c0,0-7.606,32.301-11.235,47.602H165.578z"/> <path style="fill:#FFFFFF;" d="M218.752,92.731L218.752,92.731c-13.224,0-23.944,10.72-23.944,23.944v46.859 c0,13.224,10.72,23.944,23.944,23.944h0c13.224,0,23.944-10.72,23.944-23.944v-46.859 C242.697,103.451,231.976,92.731,218.752,92.731z M225.662,164.48c0,3.81-3.1,6.909-6.909,6.909s-6.909-3.099-6.909-6.909v-48.752 c0-3.81,3.1-6.909,6.909-6.909s6.909,3.1,6.909,6.909V164.48z"/> </g></symbol></svg>